STARTFONT 2.1
COMMENT
COMMENT Converted from OpenType font "Asap-Regular.ttf" by "otf2bdf 3.0".
COMMENT
FONT -FreeType-Asap-Medium-R-Normal--18-130-100-100-P-81-ISO10646-1
SIZE 13 100 100
FONTBOUNDINGBOX 19 22 -1 -4
STARTPROPERTIES 19
FOUNDRY "FreeType"
FAMILY_NAME "Asap"
WEIGHT_NAME "Medium"
SLANT "R"
SETWIDTH_NAME "Normal"
ADD_STYLE_NAME ""
PIXEL_SIZE 18
POINT_SIZE 130
RESOLUTION_X 100
RESOLUTION_Y 100
SPACING "P"
AVERAGE_WIDTH 81
CHARSET_REGISTRY "ISO10646"
CHARSET_ENCODING "1"
FONT_ASCENT 16
FONT_DESCENT 3
COPYRIGHT "Copyright (c) 2011 by Omnibus-Type (www.omnibus-type.com) with Reserved Font Name "Asap"."
_OTF_FONTFILE "Asap-Regular.ttf"
_OTF_PSNAME "Asap-Regular"
ENDPROPERTIES
CHARS 249
STARTCHAR 0020
ENCODING 32
SWIDTH 221 0
DWIDTH 4 0
BBX 0 0 0 0
BITMAP
ENDCHAR
STARTCHAR 0021
ENCODING 33
SWIDTH 276 0
DWIDTH 5 0
BBX 2 13 2 0
BITMAP
C0
C0
C0
C0
C0
C0
C0
C0
C0
00
00
C0
C0
ENDCHAR
STARTCHAR 0022
ENCODING 34
SWIDTH 332 0
DWIDTH 6 0
BBX 4 4 1 9
BITMAP
F0
90
90
90
ENDCHAR
STARTCHAR 0023
ENCODING 35
SWIDTH 609 0
DWIDTH 11 0
BBX 9 13 1 0
BITMAP
1900
1100
1100
3300
FF80
3300
2200
2200
FF80
6600
6400
4400
4400
ENDCHAR
STARTCHAR 0024
ENCODING 36
SWIDTH 498 0
DWIDTH 9 0
BBX 9 16 0 -2
BITMAP
0C00
1F00
7F00
6C00
6C00
6C00
3C00
1E00
0F00
0D80
0D80
0D00
EF00
7E00
0C00
0C00
ENDCHAR
STARTCHAR 0025
ENCODING 37
SWIDTH 775 0
DWIDTH 14 0
BBX 12 13 1 0
BITMAP
7040
D880
D880
D900
DB00
7200
0600
04E0
0930
0B30
1330
11F0
21E0
ENDCHAR
STARTCHAR 0026
ENCODING 38
SWIDTH 664 0
DWIDTH 12 0
BBX 10 13 1 0
BITMAP
3C00
6000
C000
4100
6300
3FC0
6300
C300
C300
C300
C300
6780
3DC0
ENDCHAR
STARTCHAR 0027
ENCODING 39
SWIDTH 166 0
DWIDTH 3 0
BBX 2 4 1 9
BITMAP
C0
80
80
80
ENDCHAR
STARTCHAR 0028
ENCODING 40
SWIDTH 332 0
DWIDTH 6 0
BBX 4 19 1 -4
BITMAP
10
30
20
60
40
40
C0
C0
C0
C0
C0
C0
C0
40
40
60
20
30
10
ENDCHAR
STARTCHAR 0029
ENCODING 41
SWIDTH 332 0
DWIDTH 6 0
BBX 5 19 0 -4
BITMAP
80
40
60
20
30
30
10
10
18
18
18
10
10
30
30
20
60
40
80
ENDCHAR
STARTCHAR 002A
ENCODING 42
SWIDTH 443 0
DWIDTH 8 0
BBX 5 5 1 8
BITMAP
30
30
F8
70
48
ENDCHAR
STARTCHAR 002B
ENCODING 43
SWIDTH 553 0
DWIDTH 10 0
BBX 8 9 1 0
BITMAP
18
18
18
18
FF
18
18
18
18
ENDCHAR
STARTCHAR 002C
ENCODING 44
SWIDTH 221 0
DWIDTH 4 0
BBX 3 4 0 -2
BITMAP
60
40
40
C0
ENDCHAR
STARTCHAR 002D
ENCODING 45
SWIDTH 332 0
DWIDTH 6 0
BBX 4 1 1 5
BITMAP
F0
ENDCHAR
STARTCHAR 002E
ENCODING 46
SWIDTH 166 0
DWIDTH 3 0
BBX 2 2 1 0
BITMAP
C0
C0
ENDCHAR
STARTCHAR 002F
ENCODING 47
SWIDTH 387 0
DWIDTH 7 0
BBX 7 14 0 -1
BITMAP
06
04
04
08
08
18
10
10
20
20
40
40
C0
80
ENDCHAR
STARTCHAR 0030
ENCODING 48
SWIDTH 553 0
DWIDTH 10 0
BBX 8 13 1 0
BITMAP
3C
7E
42
C3
C3
C3
C3
C3
C3
C3
42
7E
3C
ENDCHAR
STARTCHAR 0031
ENCODING 49
SWIDTH 553 0
DWIDTH 10 0
BBX 8 13 1 0
BITMAP
38
F8
18
18
18
18
18
18
18
18
18
18
FF
ENDCHAR
STARTCHAR 0032
ENCODING 50
SWIDTH 553 0
DWIDTH 10 0
BBX 8 13 1 0
BITMAP
7C
66
03
03
02
06
0C
08
18
30
60
C0
FF
ENDCHAR
STARTCHAR 0033
ENCODING 51
SWIDTH 553 0
DWIDTH 10 0
BBX 7 13 1 0
BITMAP
F8
DC
06
06
0C
38
0C
06
06
06
06
CC
F8
ENDCHAR
STARTCHAR 0034
ENCODING 52
SWIDTH 553 0
DWIDTH 10 0
BBX 9 13 0 0
BITMAP
0300
0700
0700
0B00
1B00
1300
2300
6300
C300
FF80
0300
0300
0300
ENDCHAR
STARTCHAR 0035
ENCODING 53
SWIDTH 553 0
DWIDTH 10 0
BBX 8 13 1 0
BITMAP
7E
60
60
60
60
7C
0E
02
03
03
02
EE
7C
ENDCHAR
STARTCHAR 0036
ENCODING 54
SWIDTH 553 0
DWIDTH 10 0
BBX 8 13 1 0
BITMAP
04
18
30
60
40
FC
E6
C2
C3
C3
C2
6E
3C
ENDCHAR
STARTCHAR 0037
ENCODING 55
SWIDTH 553 0
DWIDTH 10 0
BBX 8 13 1 0
BITMAP
FF
03
06
06
04
0C
08
18
10
30
30
60
60
ENDCHAR
STARTCHAR 0038
ENCODING 56
SWIDTH 553 0
DWIDTH 10 0
BBX 8 13 1 0
BITMAP
3C
7E
C3
C3
42
7C
6E
C3
C3
C3
C3
66
3C
ENDCHAR
STARTCHAR 0039
ENCODING 57
SWIDTH 553 0
DWIDTH 10 0
BBX 8 13 1 0
BITMAP
3C
6E
C2
C3
C3
C3
7E
06
06
0C
18
30
60
ENDCHAR
STARTCHAR 003A
ENCODING 58
SWIDTH 166 0
DWIDTH 3 0
BBX 2 10 1 0
BITMAP
C0
C0
00
00
00
00
00
00
C0
C0
ENDCHAR
STARTCHAR 003B
ENCODING 59
SWIDTH 166 0
DWIDTH 3 0
BBX 3 12 0 -2
BITMAP
60
60
00
00
00
00
00
00
60
40
40
C0
ENDCHAR
STARTCHAR 003C
ENCODING 60
SWIDTH 553 0
DWIDTH 10 0
BBX 9 8 1 0
BITMAP
0180
0F00
3800
E000
E000
3800
0F00
0180
ENDCHAR
STARTCHAR 003D
ENCODING 61
SWIDTH 553 0
DWIDTH 10 0
BBX 8 4 1 2
BITMAP
FF
00
00
FF
ENDCHAR
STARTCHAR 003E
ENCODING 62
SWIDTH 553 0
DWIDTH 10 0
BBX 8 8 1 0
BITMAP
C0
70
1C
03
03
1C
70
C0
ENDCHAR
STARTCHAR 003F
ENCODING 63
SWIDTH 498 0
DWIDTH 9 0
BBX 7 13 1 0
BITMAP
78
CE
06
06
06
0C
18
30
20
00
00
30
30
ENDCHAR
STARTCHAR 0040
ENCODING 64
SWIDTH 1052 0
DWIDTH 19 0
BBX 15 15 2 -2
BITMAP
03E0
0E78
381C
23EC
6EC4
4C46
C846
D844
D844
C8CC
CCC8
C770
6000
3000
1F80
ENDCHAR
STARTCHAR 0041
ENCODING 65
SWIDTH 609 0
DWIDTH 11 0
BBX 11 13 0 0
BITMAP
0E00
0E00
0A00
1B00
1B00
1100
3180
2080
3F80
60C0
4040
4040
C060
ENDCHAR
STARTCHAR 0042
ENCODING 66
SWIDTH 609 0
DWIDTH 11 0
BBX 9 13 2 0
BITMAP
FC00
C600
C300
C300
C300
C600
FC00
C300
C100
C180
C100
C700
FE00
ENDCHAR
STARTCHAR 0043
ENCODING 67
SWIDTH 609 0
DWIDTH 11 0
BBX 9 13 1 0
BITMAP
1F00
3980
6000
C000
C000
C000
C000
C000
C000
C000
6000
7980
1F80
ENDCHAR
STARTCHAR 0044
ENCODING 68
SWIDTH 720 0
DWIDTH 13 0
BBX 10 13 2 0
BITMAP
FE00
C700
C180
C180
C080
C0C0
C0C0
C0C0
C080
C180
C180
C700
FE00
ENDCHAR
STARTCHAR 0045
ENCODING 69
SWIDTH 553 0
DWIDTH 10 0
BBX 7 13 2 0
BITMAP
FE
C0
C0
C0
C0
C0
FE
C0
C0
C0
C0
C0
FE
ENDCHAR
STARTCHAR 0046
ENCODING 70
SWIDTH 498 0
DWIDTH 9 0
BBX 7 13 2 0
BITMAP
FE
C0
C0
C0
C0
C0
FC
C0
C0
C0
C0
C0
C0
ENDCHAR
STARTCHAR 0047
ENCODING 71
SWIDTH 664 0
DWIDTH 12 0
BBX 10 13 1 0
BITMAP
1F00
3980
6000
C000
C000
C000
C3C0
C0C0
C0C0
C0C0
60C0
79C0
1F80
ENDCHAR
STARTCHAR 0048
ENCODING 72
SWIDTH 720 0
DWIDTH 13 0
BBX 10 13 2 0
BITMAP
C0C0
C0C0
C0C0
C0C0
C0C0
C0C0
FFC0
C0C0
C0C0
C0C0
C0C0
C0C0
C0C0
ENDCHAR
STARTCHAR 0049
ENCODING 73
SWIDTH 276 0
DWIDTH 5 0
BBX 2 13 2 0
BITMAP
C0
C0
C0
C0
C0
C0
C0
C0
C0
C0
C0
C0
C0
ENDCHAR
STARTCHAR 004A
ENCODING 74
SWIDTH 387 0
DWIDTH 7 0
BBX 6 13 0 0
BITMAP
0C
0C
0C
0C
0C
0C
0C
0C
0C
0C
08
F8
F0
ENDCHAR
STARTCHAR 004B
ENCODING 75
SWIDTH 609 0
DWIDTH 11 0
BBX 9 13 2 0
BITMAP
C300
C600
CC00
CC00
D800
F000
E000
F000
D800
CC00
C600
C300
C180
ENDCHAR
STARTCHAR 004C
ENCODING 76
SWIDTH 498 0
DWIDTH 9 0
BBX 7 13 2 0
BITMAP
C0
C0
C0
C0
C0
C0
C0
C0
C0
C0
C0
C0
FE
ENDCHAR
STARTCHAR 004D
ENCODING 77
SWIDTH 886 0
DWIDTH 16 0
BBX 12 13 2 0
BITMAP
C030
E070
E070
F0F0
D0B0
D9B0
CF30
CF30
C630
C030
C030
C030
C030
ENDCHAR
STARTCHAR 004E
ENCODING 78
SWIDTH 720 0
DWIDTH 13 0
BBX 10 13 2 0
BITMAP
C0C0
E0C0
E0C0
F0C0
D0C0
D8C0
CCC0
C4C0
C6C0
C3C0
C3C0
C1C0
C0C0
ENDCHAR
STARTCHAR 004F
ENCODING 79
SWIDTH 720 0
DWIDTH 13 0
BBX 11 13 1 0
BITMAP
1F00
3B80
60C0
C060
C060
C060
C060
C060
C060
C060
60C0
3B80
1F00
ENDCHAR
STARTCHAR 0050
ENCODING 80
SWIDTH 609 0
DWIDTH 11 0
BBX 8 13 2 0
BITMAP
FC
C6
C3
C3
C3
C3
FE
C0
C0
C0
C0
C0
C0
ENDCHAR
STARTCHAR 0051
ENCODING 81
SWIDTH 720 0
DWIDTH 13 0
BBX 11 16 1 -3
BITMAP
1F00
3B80
60C0
C060
C060
C060
C060
C060
C060
C060
60C0
71C0
3F80
0F80
01E0
0060
ENDCHAR
STARTCHAR 0052
ENCODING 82
SWIDTH 609 0
DWIDTH 11 0
BBX 9 13 2 0
BITMAP
FC00
C700
C300
C300
C300
C600
FC00
CE00
C200
C300
C100
C180
C180
ENDCHAR
STARTCHAR 0053
ENCODING 83
SWIDTH 498 0
DWIDTH 9 0
BBX 8 13 1 0
BITMAP
3C
66
C0
C0
C0
70
3C
06
02
03
02
E6
7C
ENDCHAR
STARTCHAR 0054
ENCODING 84
SWIDTH 609 0
DWIDTH 11 0
BBX 9 13 1 0
BITMAP
FF80
0C00
0C00
0C00
0C00
0C00
0C00
0C00
0C00
0C00
0C00
0C00
0C00
ENDCHAR
STARTCHAR 0055
ENCODING 85
SWIDTH 720 0
DWIDTH 13 0
BBX 10 13 1 0
BITMAP
C0C0
C0C0
C0C0
C0C0
C0C0
C0C0
C0C0
C0C0
C0C0
C0C0
C0C0
7380
3F00
ENDCHAR
STARTCHAR 0056
ENCODING 86
SWIDTH 609 0
DWIDTH 11 0
BBX 11 13 0 0
BITMAP
C060
4040
60C0
60C0
2080
3180
3180
1100
1B00
1B00
0A00
0E00
0E00
ENDCHAR
STARTCHAR 0057
ENCODING 87
SWIDTH 886 0
DWIDTH 16 0
BBX 16 13 0 0
BITMAP
C183
4182
6186
63C6
63C6
22C4
3244
366C
366C
1468
1428
1C38
1C38
ENDCHAR
STARTCHAR 0058
ENCODING 88
SWIDTH 609 0
DWIDTH 11 0
BBX 11 13 0 0
BITMAP
60C0
60C0
3180
1B00
1B00
0E00
0E00
0E00
1B00
3180
3180
60C0
C060
ENDCHAR
STARTCHAR 0059
ENCODING 89
SWIDTH 553 0
DWIDTH 10 0
BBX 9 13 0 0
BITMAP
C080
6180
6300
3300
1E00
1C00
0C00
0C00
0C00
0C00
0C00
0C00
0C00
ENDCHAR
STARTCHAR 005A
ENCODING 90
SWIDTH 609 0
DWIDTH 11 0
BBX 9 13 1 0
BITMAP
FF80
0180
0300
0600
0600
0C00
1800
3800
3000
6000
C000
C000
FF80
ENDCHAR
STARTCHAR 005B
ENCODING 91
SWIDTH 332 0
DWIDTH 6 0
BBX 3 17 2 -3
BITMAP
E0
C0
C0
C0
C0
C0
C0
C0
C0
C0
C0
C0
C0
C0
C0
C0
E0
ENDCHAR
STARTCHAR 005C
ENCODING 92
SWIDTH 387 0
DWIDTH 7 0
BBX 6 13 0 0
BITMAP
80
40
40
60
20
20
10
10
08
08
0C
04
04
ENDCHAR
STARTCHAR 005D
ENCODING 93
SWIDTH 276 0
DWIDTH 5 0
BBX 4 17 0 -3
BITMAP
F0
30
30
30
30
30
30
30
30
30
30
30
30
30
30
30
F0
ENDCHAR
STARTCHAR 005E
ENCODING 94
SWIDTH 443 0
DWIDTH 8 0
BBX 6 7 1 6
BITMAP
30
30
78
48
48
C4
84
ENDCHAR
STARTCHAR 005F
ENCODING 95
SWIDTH 553 0
DWIDTH 10 0
BBX 10 1 0 -3
BITMAP
FFC0
ENDCHAR
STARTCHAR 0060
ENCODING 96
SWIDTH 332 0
DWIDTH 6 0
BBX 3 3 1 11
BITMAP
C0
40
20
ENDCHAR
STARTCHAR 0061
ENCODING 97
SWIDTH 553 0
DWIDTH 10 0
BBX 8 10 1 0
BITMAP
7C
6E
03
03
3F
E3
C3
C3
EF
7B
ENDCHAR
STARTCHAR 0062
ENCODING 98
SWIDTH 609 0
DWIDTH 11 0
BBX 8 14 2 0
BITMAP
C0
C0
C0
C0
FC
EE
C2
C2
C3
C3
C2
C2
EE
9C
ENDCHAR
STARTCHAR 0063
ENCODING 99
SWIDTH 498 0
DWIDTH 9 0
BBX 7 10 1 0
BITMAP
3E
76
C0
C0
C0
C0
C0
C0
76
3E
ENDCHAR
STARTCHAR 0064
ENCODING 100
SWIDTH 553 0
DWIDTH 10 0
BBX 8 14 1 0
BITMAP
03
03
03
03
3F
67
C3
C3
C3
C3
C3
C3
6F
39
ENDCHAR
STARTCHAR 0065
ENCODING 101
SWIDTH 553 0
DWIDTH 10 0
BBX 8 10 1 0
BITMAP
3C
66
C3
C3
FF
C0
C0
C0
77
3E
ENDCHAR
STARTCHAR 0066
ENCODING 102
SWIDTH 387 0
DWIDTH 7 0
BBX 5 14 1 0
BITMAP
38
60
60
60
F8
60
60
60
60
60
60
60
60
60
ENDCHAR
STARTCHAR 0067
ENCODING 103
SWIDTH 553 0
DWIDTH 10 0
BBX 9 14 1 -4
BITMAP
3F80
7600
C300
C300
6300
3E00
6000
6000
7E00
6F00
C180
C180
E700
7E00
ENDCHAR
STARTCHAR 0068
ENCODING 104
SWIDTH 553 0
DWIDTH 10 0
BBX 7 14 2 0
BITMAP
C0
C0
C0
C0
DC
EE
C6
C6
C6
C6
C6
C6
C6
C6
ENDCHAR
STARTCHAR 0069
ENCODING 105
SWIDTH 276 0
DWIDTH 5 0
BBX 2 14 2 0
BITMAP
C0
00
00
00
C0
C0
C0
C0
C0
C0
C0
C0
C0
C0
ENDCHAR
STARTCHAR 006A
ENCODING 106
SWIDTH 276 0
DWIDTH 5 0
BBX 4 18 0 -4
BITMAP
30
00
00
00
30
30
30
30
30
30
30
30
30
30
30
30
60
E0
ENDCHAR
STARTCHAR 006B
ENCODING 107
SWIDTH 553 0
DWIDTH 10 0
BBX 7 14 2 0
BITMAP
C0
C0
C0
C0
C6
CC
D8
F0
E0
F0
D8
DC
CC
C6
ENDCHAR
STARTCHAR 006C
ENCODING 108
SWIDTH 276 0
DWIDTH 5 0
BBX 3 14 1 0
BITMAP
C0
C0
C0
C0
C0
C0
C0
C0
C0
C0
C0
C0
C0
60
ENDCHAR
STARTCHAR 006D
ENCODING 109
SWIDTH 886 0
DWIDTH 16 0
BBX 12 10 2 0
BITMAP
BCE0
EFB0
C610
C610
C610
C610
C610
C610
C610
C610
ENDCHAR
STARTCHAR 006E
ENCODING 110
SWIDTH 553 0
DWIDTH 10 0
BBX 7 10 2 0
BITMAP
BC
EE
C6
C6
C6
C6
C6
C6
C6
C6
ENDCHAR
STARTCHAR 006F
ENCODING 111
SWIDTH 609 0
DWIDTH 11 0
BBX 9 10 1 0
BITMAP
3C00
7700
C300
C100
C180
C180
C100
C300
6700
3E00
ENDCHAR
STARTCHAR 0070
ENCODING 112
SWIDTH 609 0
DWIDTH 11 0
BBX 8 14 2 -4
BITMAP
9C
EE
C2
C2
C3
C3
C2
C2
EE
FC
C0
C0
C0
C0
ENDCHAR
STARTCHAR 0071
ENCODING 113
SWIDTH 609 0
DWIDTH 11 0
BBX 8 14 1 -4
BITMAP
39
6F
C3
C3
C3
C3
C3
C3
67
3F
03
03
03
03
ENDCHAR
STARTCHAR 0072
ENCODING 114
SWIDTH 387 0
DWIDTH 7 0
BBX 4 10 2 0
BITMAP
B0
E0
C0
C0
C0
C0
C0
C0
C0
C0
ENDCHAR
STARTCHAR 0073
ENCODING 115
SWIDTH 443 0
DWIDTH 8 0
BBX 6 10 1 0
BITMAP
78
E8
C0
C0
78
1C
0C
0C
DC
78
ENDCHAR
STARTCHAR 0074
ENCODING 116
SWIDTH 387 0
DWIDTH 7 0
BBX 5 12 1 1
BITMAP
20
60
F8
60
60
60
60
60
60
60
30
38
ENDCHAR
STARTCHAR 0075
ENCODING 117
SWIDTH 553 0
DWIDTH 10 0
BBX 7 10 1 0
BITMAP
C6
C6
C6
C6
C6
C6
C6
C6
EE
7A
ENDCHAR
STARTCHAR 0076
ENCODING 118
SWIDTH 498 0
DWIDTH 9 0
BBX 8 10 0 0
BITMAP
C1
43
63
62
22
36
34
14
1C
18
ENDCHAR
STARTCHAR 0077
ENCODING 119
SWIDTH 775 0
DWIDTH 14 0
BBX 12 10 1 0
BITMAP
8630
C630
CE20
CE20
4B60
6B60
7940
7940
31C0
31C0
ENDCHAR
STARTCHAR 0078
ENCODING 120
SWIDTH 498 0
DWIDTH 9 0
BBX 8 10 0 0
BITMAP
63
63
36
1C
1C
1C
3C
36
63
C3
ENDCHAR
STARTCHAR 0079
ENCODING 121
SWIDTH 498 0
DWIDTH 9 0
BBX 8 14 0 -4
BITMAP
C1
43
63
62
36
36
14
1C
1C
08
18
10
30
30
ENDCHAR
STARTCHAR 007A
ENCODING 122
SWIDTH 498 0
DWIDTH 9 0
BBX 7 10 1 0
BITMAP
FE
06
0C
18
18
30
60
60
C0
FE
ENDCHAR
STARTCHAR 007B
ENCODING 123
SWIDTH 332 0
DWIDTH 6 0
BBX 4 17 1 -3
BITMAP
30
60
60
60
60
60
60
C0
80
C0
40
60
60
60
60
60
70
ENDCHAR
STARTCHAR 007C
ENCODING 124
SWIDTH 276 0
DWIDTH 5 0
BBX 2 17 2 -3
BITMAP
C0
C0
C0
C0
C0
C0
C0
C0
C0
C0
C0
C0
C0
C0
C0
C0
C0
ENDCHAR
STARTCHAR 007D
ENCODING 125
SWIDTH 276 0
DWIDTH 5 0
BBX 4 17 1 -3
BITMAP
C0
60
60
60
60
60
60
60
30
20
60
60
60
60
60
60
C0
ENDCHAR
STARTCHAR 007E
ENCODING 126
SWIDTH 553 0
DWIDTH 10 0
BBX 7 1 1 4
BITMAP
FE
ENDCHAR
STARTCHAR 00A0
ENCODING 160
SWIDTH 498 0
DWIDTH 9 0
BBX 0 0 0 0
BITMAP
ENDCHAR
STARTCHAR 00A1
ENCODING 161
SWIDTH 276 0
DWIDTH 5 0
BBX 2 13 2 -3
BITMAP
C0
C0
00
00
C0
C0
C0
C0
C0
C0
C0
C0
C0
ENDCHAR
STARTCHAR 00A2
ENCODING 162
SWIDTH 498 0
DWIDTH 9 0
BBX 7 12 1 -1
BITMAP
18
3E
7A
D8
D8
D8
D8
D8
D8
7A
3E
18
ENDCHAR
STARTCHAR 00A3
ENCODING 163
SWIDTH 498 0
DWIDTH 9 0
BBX 7 13 1 0
BITMAP
1E
30
60
60
60
FC
60
60
60
60
60
C0
FE
ENDCHAR
STARTCHAR 00A4
ENCODING 164
SWIDTH 553 0
DWIDTH 10 0
BBX 7 7 2 3
BITMAP
BC
6C
C4
C6
C4
4C
FC
ENDCHAR
STARTCHAR 00A5
ENCODING 165
SWIDTH 553 0
DWIDTH 10 0
BBX 9 13 1 0
BITMAP
8180
C300
6200
2600
3C00
FF00
1800
1800
FF00
1800
1800
1800
1800
ENDCHAR
STARTCHAR 00A6
ENCODING 166
SWIDTH 276 0
DWIDTH 5 0
BBX 2 17 2 -3
BITMAP
C0
C0
C0
C0
C0
C0
C0
00
00
00
C0
C0
C0
C0
C0
C0
C0
ENDCHAR
STARTCHAR 00A7
ENCODING 167
SWIDTH 443 0
DWIDTH 8 0
BBX 6 13 1 0
BITMAP
38
68
C0
60
78
CC
CC
CC
78
18
0C
58
70
ENDCHAR
STARTCHAR 00A8
ENCODING 168
SWIDTH 332 0
DWIDTH 6 0
BBX 4 1 1 12
BITMAP
F0
ENDCHAR
STARTCHAR 00A9
ENCODING 169
SWIDTH 830 0
DWIDTH 15 0
BBX 14 13 1 0
BITMAP
0F80
3CE0
77B0
6C98
D808
D808
D80C
D80C
C808
4F98
6030
3060
0F80
ENDCHAR
STARTCHAR 00AA
ENCODING 170
SWIDTH 332 0
DWIDTH 6 0
BBX 4 6 1 7
BITMAP
E0
30
70
F0
F0
D0
ENDCHAR
STARTCHAR 00AB
ENCODING 171
SWIDTH 498 0
DWIDTH 9 0
BBX 6 7 1 1
BITMAP
24
6C
C8
90
C8
6C
24
ENDCHAR
STARTCHAR 00AC
ENCODING 172
SWIDTH 553 0
DWIDTH 10 0
BBX 9 5 1 1
BITMAP
FF80
0180
0180
0180
0100
ENDCHAR
STARTCHAR 00AD
ENCODING 173
SWIDTH 332 0
DWIDTH 6 0
BBX 4 1 1 5
BITMAP
F0
ENDCHAR
STARTCHAR 00AE
ENCODING 174
SWIDTH 830 0
DWIDTH 15 0
BBX 14 13 1 0
BITMAP
0F80
3CE0
7FB0
6D98
CCC8
CC88
CF0C
CD8C
CC88
6C98
6030
3CE0
0F80
ENDCHAR
STARTCHAR 00AF
ENCODING 175
SWIDTH 387 0
DWIDTH 7 0
BBX 5 1 1 12
BITMAP
F8
ENDCHAR
STARTCHAR 00B0
ENCODING 176
SWIDTH 387 0
DWIDTH 7 0
BBX 5 5 1 8
BITMAP
70
D8
D8
D8
70
ENDCHAR
STARTCHAR 00B1
ENCODING 177
SWIDTH 553 0
DWIDTH 10 0
BBX 8 11 1 0
BITMAP
18
18
18
18
FF
18
18
18
18
00
FF
ENDCHAR
STARTCHAR 00B2
ENCODING 178
SWIDTH 332 0
DWIDTH 6 0
BBX 5 8 1 5
BITMAP
F0
B8
10
10
20
40
80
F0
ENDCHAR
STARTCHAR 00B3
ENCODING 179
SWIDTH 332 0
DWIDTH 6 0
BBX 5 8 1 5
BITMAP
F0
B8
10
60
30
18
10
F0
ENDCHAR
STARTCHAR 00B4
ENCODING 180
SWIDTH 332 0
DWIDTH 6 0
BBX 3 3 1 11
BITMAP
60
40
80
ENDCHAR
STARTCHAR 00B5
ENCODING 181
SWIDTH 609 0
DWIDTH 11 0
BBX 7 14 2 -4
BITMAP
C6
C6
C6
C6
C6
C6
C6
C6
EE
FA
C0
C0
C0
C0
ENDCHAR
STARTCHAR 00B6
ENCODING 182
SWIDTH 498 0
DWIDTH 9 0
BBX 7 17 1 -4
BITMAP
3E
FE
FE
FE
FE
FE
FE
7E
3E
1E
1E
1E
1E
1E
1E
1E
1E
ENDCHAR
STARTCHAR 00B7
ENCODING 183
SWIDTH 276 0
DWIDTH 5 0
BBX 2 1 2 6
BITMAP
C0
ENDCHAR
STARTCHAR 00B8
ENCODING 184
SWIDTH 332 0
DWIDTH 6 0
BBX 5 4 1 -4
BITMAP
20
30
18
F0
ENDCHAR
STARTCHAR 00B9
ENCODING 185
SWIDTH 221 0
DWIDTH 4 0
BBX 3 8 1 5
BITMAP
E0
60
60
60
60
60
60
60
ENDCHAR
STARTCHAR 00BA
ENCODING 186
SWIDTH 387 0
DWIDTH 7 0
BBX 5 6 1 7
BITMAP
70
F0
D8
D8
D0
70
ENDCHAR
STARTCHAR 00BB
ENCODING 187
SWIDTH 498 0
DWIDTH 9 0
BBX 7 7 1 1
BITMAP
90
48
6C
36
6C
48
90
ENDCHAR
STARTCHAR 00BC
ENCODING 188
SWIDTH 664 0
DWIDTH 12 0
BBX 10 13 1 0
BITMAP
E080
6100
6100
6200
6200
64C0
69C0
6BC0
12C0
14C0
27C0
40C0
40C0
ENDCHAR
STARTCHAR 00BD
ENCODING 189
SWIDTH 775 0
DWIDTH 14 0
BBX 12 13 1 0
BITMAP
E080
6100
6100
6200
6200
65C0
6930
6820
1060
1040
2080
4100
41E0
ENDCHAR
STARTCHAR 00BE
ENCODING 190
SWIDTH 775 0
DWIDTH 14 0
BBX 12 13 1 0
BITMAP
F040
B880
1080
6100
3100
1A30
F270
04B0
08B0
0930
11F0
1030
2030
ENDCHAR
STARTCHAR 00BF
ENCODING 191
SWIDTH 498 0
DWIDTH 9 0
BBX 7 13 1 -3
BITMAP
18
18
00
00
18
10
30
60
C0
C0
C0
C2
7E
ENDCHAR
STARTCHAR 00C0
ENCODING 192
SWIDTH 609 0
DWIDTH 11 0
BBX 11 17 0 1
BITMAP
0C00
0600
0000
0000
0600
0E00
0F00
0B00
1900
1180
1180
3080
3FC0
20C0
6040
4060
C060
ENDCHAR
STARTCHAR 00C1
ENCODING 193
SWIDTH 609 0
DWIDTH 11 0
BBX 10 18 1 0
BITMAP
0200
0400
0C00
0000
0000
0C00
0C00
1E00
1200
1200
3300
2100
6180
7F80
4080
C0C0
C0C0
8040
ENDCHAR
STARTCHAR 00C2
ENCODING 194
SWIDTH 609 0
DWIDTH 11 0
BBX 11 17 0 0
BITMAP
0E00
0A00
0000
0000
0E00
0E00
0A00
1B00
1B00
1100
3180
2080
3F80
60C0
4040
4040
C060
ENDCHAR
STARTCHAR 00C3
ENCODING 195
SWIDTH 664 0
DWIDTH 12 0
BBX 10 17 1 0
BITMAP
1900
2F00
0000
0000
0C00
0C00
1E00
1200
3300
3300
2100
6180
7F80
4080
C0C0
C0C0
8040
ENDCHAR
STARTCHAR 00C4
ENCODING 196
SWIDTH 553 0
DWIDTH 10 0
BBX 10 16 0 0
BITMAP
1E00
0000
0000
0C00
0C00
1E00
1200
1200
3300
2100
6100
7F80
4080
C0C0
C0C0
8040
ENDCHAR
STARTCHAR 00C5
ENCODING 197
SWIDTH 664 0
DWIDTH 12 0
BBX 11 18 0 0
BITMAP
0600
0E00
0F00
0E00
0000
0600
0E00
0F00
0B00
1900
1180
3080
2080
3FC0
6040
4060
4060
C020
ENDCHAR
STARTCHAR 00C6
ENCODING 198
SWIDTH 941 0
DWIDTH 17 0
BBX 16 13 0 0
BITMAP
03FE
0300
0780
0580
0D80
0880
18FE
10C0
3FC0
2040
6040
4040
C07F
ENDCHAR
STARTCHAR 00C7
ENCODING 199
SWIDTH 609 0
DWIDTH 11 0
BBX 9 17 1 -4
BITMAP
1F00
3980
6000
C000
C000
C000
C000
C000
C000
C000
6000
7980
1F00
0800
0600
0600
1C00
ENDCHAR
STARTCHAR 00C8
ENCODING 200
SWIDTH 553 0
DWIDTH 10 0
BBX 7 17 2 1
BITMAP
30
18
00
00
FE
C0
C0
C0
C0
C0
FE
C0
C0
C0
C0
C0
FE
ENDCHAR
STARTCHAR 00C9
ENCODING 201
SWIDTH 553 0
DWIDTH 10 0
BBX 7 17 2 1
BITMAP
18
10
00
00
FE
C0
C0
C0
C0
C0
FE
C0
C0
C0
C0
C0
FE
ENDCHAR
STARTCHAR 00CA
ENCODING 202
SWIDTH 553 0
DWIDTH 10 0
BBX 7 17 2 0
BITMAP
38
28
00
00
FE
C0
C0
C0
C0
C0
FE
C0
C0
C0
C0
C0
FE
ENDCHAR
STARTCHAR 00CB
ENCODING 203
SWIDTH 553 0
DWIDTH 10 0
BBX 7 16 2 0
BITMAP
6C
00
00
FE
C0
C0
C0
C0
C0
FE
C0
C0
C0
C0
C0
FE
ENDCHAR
STARTCHAR 00CC
ENCODING 204
SWIDTH 276 0
DWIDTH 5 0
BBX 3 17 1 1
BITMAP
C0
60
00
00
60
60
60
60
60
60
60
60
60
60
60
60
60
ENDCHAR
STARTCHAR 00CD
ENCODING 205
SWIDTH 276 0
DWIDTH 5 0
BBX 3 18 2 0
BITMAP
20
40
C0
00
00
C0
C0
C0
C0
C0
C0
C0
C0
C0
C0
C0
C0
C0
ENDCHAR
STARTCHAR 00CE
ENCODING 206
SWIDTH 276 0
DWIDTH 5 0
BBX 4 17 1 0
BITMAP
60
B0
10
00
60
60
60
60
60
60
60
60
60
60
60
60
60
ENDCHAR
STARTCHAR 00CF
ENCODING 207
SWIDTH 332 0
DWIDTH 6 0
BBX 4 16 1 0
BITMAP
F0
00
00
60
60
60
60
60
60
60
60
60
60
60
60
60
ENDCHAR
STARTCHAR 00D0
ENCODING 208
SWIDTH 720 0
DWIDTH 13 0
BBX 12 13 0 0
BITMAP
7F00
61C0
6060
6060
6020
6030
F830
6030
6020
6060
6060
61C0
7F00
ENDCHAR
STARTCHAR 00D1
ENCODING 209
SWIDTH 720 0
DWIDTH 13 0
BBX 10 17 2 0
BITMAP
1900
2F00
0000
0000
C0C0
E0C0
E0C0
F0C0
D0C0
D8C0
CCC0
C4C0
C6C0
C3C0
C3C0
C1C0
C0C0
ENDCHAR
STARTCHAR 00D2
ENCODING 210
SWIDTH 720 0
DWIDTH 13 0
BBX 11 17 1 1
BITMAP
0C00
0600
0000
0000
1F00
3B80
60C0
C060
C060
C060
C060
C060
C060
C060
60C0
3B80
1F00
ENDCHAR
STARTCHAR 00D3
ENCODING 211
SWIDTH 720 0
DWIDTH 13 0
BBX 11 17 1 1
BITMAP
0600
0400
0000
0000
1F00
3B80
60C0
C060
C060
C060
C060
C060
C060
C060
60C0
3B80
1F00
ENDCHAR
STARTCHAR 00D4
ENCODING 212
SWIDTH 720 0
DWIDTH 13 0
BBX 11 17 1 0
BITMAP
0E00
0A00
0000
0000
1F00
3B80
60C0
C060
C060
C060
C060
C060
C060
C060
60C0
3B80
1F00
ENDCHAR
STARTCHAR 00D5
ENCODING 213
SWIDTH 720 0
DWIDTH 13 0
BBX 11 17 1 0
BITMAP
0C80
1780
0000
0000
1F00
3B80
60C0
C060
C060
C060
C060
C060
C060
C060
60C0
3B80
1F00
ENDCHAR
STARTCHAR 00D6
ENCODING 214
SWIDTH 720 0
DWIDTH 13 0
BBX 11 16 1 0
BITMAP
1B00
0000
0000
1F00
3B80
60C0
C060
C060
C060
C060
C060
C060
C060
60C0
3B80
1F00
ENDCHAR
STARTCHAR 00D7
ENCODING 215
SWIDTH 553 0
DWIDTH 10 0
BBX 8 9 1 0
BITMAP
81
C3
66
3C
18
3C
66
C3
81
ENDCHAR
STARTCHAR 00D8
ENCODING 216
SWIDTH 720 0
DWIDTH 13 0
BBX 11 13 1 0
BITMAP
1F20
3BC0
60C0
C160
C260
C260
C460
C860
D060
E060
60C0
FB80
9F00
ENDCHAR
STARTCHAR 00D9
ENCODING 217
SWIDTH 720 0
DWIDTH 13 0
BBX 10 17 1 1
BITMAP
0800
0400
0000
0000
C0C0
C0C0
C0C0
C0C0
C0C0
C0C0
C0C0
C0C0
C0C0
C0C0
C0C0
7F80
3F00
ENDCHAR
STARTCHAR 00DA
ENCODING 218
SWIDTH 720 0
DWIDTH 13 0
BBX 10 17 1 1
BITMAP
0600
0800
0000
0000
C0C0
C0C0
C0C0
C0C0
C0C0
C0C0
C0C0
C0C0
C0C0
C0C0
C0C0
7F80
3F00
ENDCHAR
STARTCHAR 00DB
ENCODING 219
SWIDTH 720 0
DWIDTH 13 0
BBX 10 17 1 0
BITMAP
0C00
1E00
0000
0000
C0C0
C0C0
C0C0
C0C0
C0C0
C0C0
C0C0
C0C0
C0C0
C0C0
C0C0
7F80
3F00
ENDCHAR
STARTCHAR 00DC
ENCODING 220
SWIDTH 720 0
DWIDTH 13 0
BBX 10 16 1 0
BITMAP
1E00
0000
0000
C0C0
C0C0
C0C0
C0C0
C0C0
C0C0
C0C0
C0C0
C0C0
C0C0
C0C0
7380
3F00
ENDCHAR
STARTCHAR 00DD
ENCODING 221
SWIDTH 553 0
DWIDTH 10 0
BBX 9 18 0 0
BITMAP
0600
0400
0C00
0000
0000
C080
6180
6300
3300
1E00
1C00
0C00
0C00
0C00
0C00
0C00
0C00
0C00
ENDCHAR
STARTCHAR 00DE
ENCODING 222
SWIDTH 609 0
DWIDTH 11 0
BBX 8 13 2 0
BITMAP
C0
C0
FC
C7
C3
C3
C3
C3
FE
C0
C0
C0
C0
ENDCHAR
STARTCHAR 00DF
ENCODING 223
SWIDTH 553 0
DWIDTH 10 0
BBX 8 13 2 0
BITMAP
3C
6E
C6
C6
C4
D8
C6
C2
C3
C3
C2
CE
DC
ENDCHAR
STARTCHAR 00E0
ENCODING 224
SWIDTH 553 0
DWIDTH 10 0
BBX 8 14 1 0
BITMAP
30
18
08
00
7C
6E
03
03
3F
E3
C3
C3
EF
7B
ENDCHAR
STARTCHAR 00E1
ENCODING 225
SWIDTH 553 0
DWIDTH 10 0
BBX 8 14 1 0
BITMAP
0C
18
10
00
7C
6E
03
03
3F
E3
C3
C3
EF
7B
ENDCHAR
STARTCHAR 00E2
ENCODING 226
SWIDTH 553 0
DWIDTH 10 0
BBX 8 13 1 0
BITMAP
18
24
00
7C
6E
03
03
3F
E3
C3
C3
EF
7B
ENDCHAR
STARTCHAR 00E3
ENCODING 227
SWIDTH 553 0
DWIDTH 10 0
BBX 8 13 1 0
BITMAP
7E
00
00
7C
6E
03
03
3F
E3
C3
C3
EF
7B
ENDCHAR
STARTCHAR 00E4
ENCODING 228
SWIDTH 553 0
DWIDTH 10 0
BBX 8 13 1 0
BITMAP
3C
00
00
7C
6E
03
03
3F
E3
C3
C3
EF
7B
ENDCHAR
STARTCHAR 00E5
ENCODING 229
SWIDTH 553 0
DWIDTH 10 0
BBX 8 14 1 0
BITMAP
1C
36
3C
00
7C
66
02
01
3F
E1
C1
C3
EF
79
ENDCHAR
STARTCHAR 00E6
ENCODING 230
SWIDTH 830 0
DWIDTH 15 0
BBX 13 10 1 0
BITMAP
7DE0
67B0
0218
0618
3FF8
E600
C200
C200
EF98
79F0
ENDCHAR
STARTCHAR 00E7
ENCODING 231
SWIDTH 498 0
DWIDTH 9 0
BBX 7 14 1 -4
BITMAP
3E
76
C0
C0
C0
C0
C0
C0
76
3E
10
0C
0C
38
ENDCHAR
STARTCHAR 00E8
ENCODING 232
SWIDTH 553 0
DWIDTH 10 0
BBX 8 14 1 0
BITMAP
10
18
00
00
3C
66
C3
C3
FF
C0
C0
C0
77
3E
ENDCHAR
STARTCHAR 00E9
ENCODING 233
SWIDTH 553 0
DWIDTH 10 0
BBX 8 14 1 0
BITMAP
0C
08
10
00
3C
66
C3
C3
FF
C0
C0
C0
77
3E
ENDCHAR
STARTCHAR 00EA
ENCODING 234
SWIDTH 553 0
DWIDTH 10 0
BBX 8 13 1 0
BITMAP
18
24
00
3C
66
C3
C3
FF
C0
C0
C0
77
3E
ENDCHAR
STARTCHAR 00EB
ENCODING 235
SWIDTH 553 0
DWIDTH 10 0
BBX 8 13 1 0
BITMAP
3C
00
00
3C
66
C3
C3
FF
C0
C0
C0
77
3E
ENDCHAR
STARTCHAR 00EC
ENCODING 236
SWIDTH 276 0
DWIDTH 5 0
BBX 3 14 1 0
BITMAP
C0
60
20
00
60
60
60
60
60
60
60
60
60
60
ENDCHAR
STARTCHAR 00ED
ENCODING 237
SWIDTH 276 0
DWIDTH 5 0
BBX 3 14 2 0
BITMAP
60
C0
80
00
C0
C0
C0
C0
C0
C0
C0
C0
C0
C0
ENDCHAR
STARTCHAR 00EE
ENCODING 238
SWIDTH 276 0
DWIDTH 5 0
BBX 4 13 1 0
BITMAP
60
B0
00
60
60
60
60
60
60
60
60
60
60
ENDCHAR
STARTCHAR 00EF
ENCODING 239
SWIDTH 332 0
DWIDTH 6 0
BBX 4 13 1 0
BITMAP
F0
00
00
60
60
60
60
60
60
60
60
60
60
ENDCHAR
STARTCHAR 00F0
ENCODING 240
SWIDTH 609 0
DWIDTH 11 0
BBX 9 13 1 0
BITMAP
0C00
1E00
0600
3F00
7700
C300
C100
C180
C180
C100
C300
7700
3E00
ENDCHAR
STARTCHAR 00F1
ENCODING 241
SWIDTH 553 0
DWIDTH 10 0
BBX 7 13 2 0
BITMAP
7E
00
00
9C
EE
C6
C6
C6
C6
C6
C6
C6
C6
ENDCHAR
STARTCHAR 00F2
ENCODING 242
SWIDTH 609 0
DWIDTH 11 0
BBX 9 14 1 0
BITMAP
1800
1800
0000
0000
3C00
7700
C300
C100
C180
C180
C100
C300
6700
3E00
ENDCHAR
STARTCHAR 00F3
ENCODING 243
SWIDTH 609 0
DWIDTH 11 0
BBX 9 14 1 0
BITMAP
0C00
0800
1000
0000
3C00
7700
C300
C100
C180
C180
C100
C300
6700
3E00
ENDCHAR
STARTCHAR 00F4
ENCODING 244
SWIDTH 609 0
DWIDTH 11 0
BBX 9 13 1 0
BITMAP
1800
3400
0000
3C00
7700
C300
C100
C180
C180
C100
C300
6700
3E00
ENDCHAR
STARTCHAR 00F5
ENCODING 245
SWIDTH 609 0
DWIDTH 11 0
BBX 9 13 1 0
BITMAP
7E00
0000
0000
3C00
7700
C300
C100
C180
C180
C100
C300
6700
3E00
ENDCHAR
STARTCHAR 00F6
ENCODING 246
SWIDTH 609 0
DWIDTH 11 0
BBX 9 13 1 0
BITMAP
3C00
0000
0000
3C00
7700
C300
C100
C180
C180
C100
C300
6700
3E00
ENDCHAR
STARTCHAR 00F7
ENCODING 247
SWIDTH 553 0
DWIDTH 10 0
BBX 8 8 1 0
BITMAP
18
00
00
FF
00
00
00
18
ENDCHAR
STARTCHAR 00F8
ENCODING 248
SWIDTH 609 0
DWIDTH 11 0
BBX 9 10 1 0
BITMAP
3E80
7700
C300
C500
C980
D180
D100
E300
6700
BE00
ENDCHAR
STARTCHAR 00F9
ENCODING 249
SWIDTH 553 0
DWIDTH 10 0
BBX 7 14 1 0
BITMAP
30
10
00
00
C6
C6
C6
C6
C6
C6
C6
C6
EE
7A
ENDCHAR
STARTCHAR 00FA
ENCODING 250
SWIDTH 553 0
DWIDTH 10 0
BBX 7 14 1 0
BITMAP
0C
18
00
00
C6
C6
C6
C6
C6
C6
C6
C6
EE
7A
ENDCHAR
STARTCHAR 00FB
ENCODING 251
SWIDTH 553 0
DWIDTH 10 0
BBX 7 13 1 0
BITMAP
38
2C
00
C6
C6
C6
C6
C6
C6
C6
C6
EE
7A
ENDCHAR
STARTCHAR 00FC
ENCODING 252
SWIDTH 553 0
DWIDTH 10 0
BBX 7 13 1 0
BITMAP
2C
00
00
C6
C6
C6
C6
C6
C6
C6
C6
EE
7A
ENDCHAR
STARTCHAR 00FD
ENCODING 253
SWIDTH 498 0
DWIDTH 9 0
BBX 8 18 1 -4
BITMAP
08
18
00
00
83
C2
C6
44
64
6C
28
38
38
10
30
30
60
60
ENDCHAR
STARTCHAR 00FE
ENCODING 254
SWIDTH 609 0
DWIDTH 11 0
BBX 8 18 2 -4
BITMAP
C0
C0
C0
C0
DC
EE
C2
C2
C3
C3
C2
C2
EE
FC
C0
C0
C0
C0
ENDCHAR
STARTCHAR 00FF
ENCODING 255
SWIDTH 443 0
DWIDTH 8 0
BBX 8 17 0 -4
BITMAP
3C
00
00
C3
C3
42
66
26
24
3C
18
18
18
10
30
30
20
ENDCHAR
STARTCHAR 0131
ENCODING 305
SWIDTH 276 0
DWIDTH 5 0
BBX 2 10 2 0
BITMAP
C0
C0
C0
C0
C0
C0
C0
C0
C0
C0
ENDCHAR
STARTCHAR 0141
ENCODING 321
SWIDTH 498 0
DWIDTH 9 0
BBX 9 13 0 0
BITMAP
3000
3000
3000
3400
3800
3000
F000
3000
3000
3000
3000
3000
3F80
ENDCHAR
STARTCHAR 0142
ENCODING 322
SWIDTH 276 0
DWIDTH 5 0
BBX 4 14 0 0
BITMAP
60
60
60
60
60
70
60
E0
60
60
60
60
60
30
ENDCHAR
STARTCHAR 0152
ENCODING 338
SWIDTH 996 0
DWIDTH 18 0
BBX 16 13 1 0
BITMAP
1F7F
3BE0
60E0
C060
C060
C060
C07F
C060
C060
C060
60E0
3BE0
1F7F
ENDCHAR
STARTCHAR 0153
ENCODING 339
SWIDTH 886 0
DWIDTH 16 0
BBX 14 10 1 0
BITMAP
3CF0
7798
C308
C30C
C3FC
C300
C300
C300
6798
3CF0
ENDCHAR
STARTCHAR 0160
ENCODING 352
SWIDTH 498 0
DWIDTH 9 0
BBX 8 17 1 0
BITMAP
24
38
00
00
3C
66
C0
C0
C0
70
3C
06
02
03
02
EE
7C
ENDCHAR
STARTCHAR 0161
ENCODING 353
SWIDTH 443 0
DWIDTH 8 0
BBX 6 13 1 0
BITMAP
48
30
00
78
E8
C8
C0
78
1C
0C
0C
DC
78
ENDCHAR
STARTCHAR 0178
ENCODING 376
SWIDTH 553 0
DWIDTH 10 0
BBX 9 16 1 0
BITMAP
3C00
0000
0000
8180
C300
6300
2600
3C00
1C00
1800
1800
1800
1800
1800
1800
1800
ENDCHAR
STARTCHAR 017D
ENCODING 381
SWIDTH 609 0
DWIDTH 11 0
BBX 9 17 1 0
BITMAP
2400
1C00
0800
0000
FF80
0180
0300
0600
0600
0C00
1800
3800
3000
6000
C000
C000
FF80
ENDCHAR
STARTCHAR 017E
ENCODING 382
SWIDTH 498 0
DWIDTH 9 0
BBX 7 13 1 0
BITMAP
6C
38
00
FE
06
0C
18
18
30
60
60
C0
FE
ENDCHAR
STARTCHAR 0192
ENCODING 402
SWIDTH 387 0
DWIDTH 7 0
BBX 6 18 1 -4
BITMAP
1C
30
30
20
78
20
60
60
60
60
40
40
40
40
C0
C0
C0
C0
ENDCHAR
STARTCHAR 02C6
ENCODING 710
SWIDTH 332 0
DWIDTH 6 0
BBX 4 2 1 11
BITMAP
60
B0
ENDCHAR
STARTCHAR 02C7
ENCODING 711
SWIDTH 332 0
DWIDTH 6 0
BBX 4 2 1 11
BITMAP
90
E0
ENDCHAR
STARTCHAR 02D8
ENCODING 728
SWIDTH 387 0
DWIDTH 7 0
BBX 5 2 1 11
BITMAP
88
F8
ENDCHAR
STARTCHAR 02D9
ENCODING 729
SWIDTH 332 0
DWIDTH 6 0
BBX 2 1 2 12
BITMAP
C0
ENDCHAR
STARTCHAR 02DA
ENCODING 730
SWIDTH 332 0
DWIDTH 6 0
BBX 4 4 1 10
BITMAP
60
E0
F0
E0
ENDCHAR
STARTCHAR 02DB
ENCODING 731
SWIDTH 332 0
DWIDTH 6 0
BBX 4 3 1 -3
BITMAP
C0
C0
F0
ENDCHAR
STARTCHAR 02DC
ENCODING 732
SWIDTH 443 0
DWIDTH 8 0
BBX 6 1 1 12
BITMAP
FC
ENDCHAR
STARTCHAR 02DD
ENCODING 733
SWIDTH 387 0
DWIDTH 7 0
BBX 5 3 1 11
BITMAP
68
D8
90
ENDCHAR
STARTCHAR 03C0
ENCODING 960
SWIDTH 664 0
DWIDTH 12 0
BBX 10 10 1 0
BITMAP
FFC0
B180
2180
2180
2180
2180
6180
6180
6180
4180
ENDCHAR
STARTCHAR 2013
ENCODING 8211
SWIDTH 498 0
DWIDTH 9 0
BBX 9 1 0 5
BITMAP
FF80
ENDCHAR
STARTCHAR 2014
ENCODING 8212
SWIDTH 996 0
DWIDTH 18 0
BBX 18 1 0 5
BITMAP
FFFFC0
ENDCHAR
STARTCHAR 2018
ENCODING 8216
SWIDTH 221 0
DWIDTH 4 0
BBX 2 4 1 10
BITMAP
40
C0
C0
C0
ENDCHAR
STARTCHAR 2019
ENCODING 8217
SWIDTH 166 0
DWIDTH 3 0
BBX 3 4 0 10
BITMAP
60
40
40
C0
ENDCHAR
STARTCHAR 201A
ENCODING 8218
SWIDTH 221 0
DWIDTH 4 0
BBX 3 4 0 -2
BITMAP
60
40
40
C0
ENDCHAR
STARTCHAR 201C
ENCODING 8220
SWIDTH 332 0
DWIDTH 6 0
BBX 5 4 1 10
BITMAP
58
D0
F0
F0
ENDCHAR
STARTCHAR 201D
ENCODING 8221
SWIDTH 332 0
DWIDTH 6 0
BBX 5 4 0 10
BITMAP
78
58
58
D0
ENDCHAR
STARTCHAR 201E
ENCODING 8222
SWIDTH 332 0
DWIDTH 6 0
BBX 5 4 0 -2
BITMAP
78
58
58
D0
ENDCHAR
STARTCHAR 2020
ENCODING 8224
SWIDTH 553 0
DWIDTH 10 0
BBX 8 16 1 -3
BITMAP
18
18
18
FF
18
18
18
18
18
18
18
18
18
18
18
18
ENDCHAR
STARTCHAR 2021
ENCODING 8225
SWIDTH 553 0
DWIDTH 10 0
BBX 8 16 1 -3
BITMAP
18
18
18
FF
18
18
18
18
18
18
18
FF
18
18
18
18
ENDCHAR
STARTCHAR 2022
ENCODING 8226
SWIDTH 387 0
DWIDTH 7 0
BBX 5 5 1 4
BITMAP
70
F8
F8
F8
70
ENDCHAR
STARTCHAR 2026
ENCODING 8230
SWIDTH 664 0
DWIDTH 12 0
BBX 10 2 1 0
BITMAP
CCC0
CCC0
ENDCHAR
STARTCHAR 2030
ENCODING 8240
SWIDTH 1052 0
DWIDTH 19 0
BBX 17 13 1 0
BITMAP
708000
D88000
D90000
D90000
DA0000
720000
040000
0DCE00
0B6900
1B7980
137980
236F00
21CF00
ENDCHAR
STARTCHAR 2039
ENCODING 8249
SWIDTH 276 0
DWIDTH 5 0
BBX 3 7 1 1
BITMAP
20
60
C0
80
C0
60
20
ENDCHAR
STARTCHAR 203A
ENCODING 8250
SWIDTH 276 0
DWIDTH 5 0
BBX 4 7 1 1
BITMAP
80
40
60
30
60
40
80
ENDCHAR
STARTCHAR 2044
ENCODING 8260
SWIDTH 276 0
DWIDTH 5 0
BBX 7 13 -1 0
BITMAP
02
02
04
04
08
18
10
30
20
40
40
80
80
ENDCHAR
STARTCHAR 20AC
ENCODING 8364
SWIDTH 609 0
DWIDTH 11 0
BBX 10 13 0 0
BITMAP
0F80
1880
3000
2000
FF00
6000
6000
FF00
2000
2000
3000
1DC0
0F80
ENDCHAR
STARTCHAR 2122
ENCODING 8482
SWIDTH 775 0
DWIDTH 14 0
BBX 12 7 1 6
BITMAP
FA10
2230
2530
24D0
2490
2410
2410
ENDCHAR
STARTCHAR 2126
ENCODING 8486
SWIDTH 720 0
DWIDTH 13 0
BBX 11 13 1 0
BITMAP
1F00
3B80
60C0
C060
C060
C060
C060
C060
C060
C060
40C0
60C0
FBE0
ENDCHAR
STARTCHAR 2190
ENCODING 8592
SWIDTH 775 0
DWIDTH 14 0
BBX 14 9 0 0
BITMAP
0C00
1800
3000
6000
FFFC
6000
3000
1800
0C00
ENDCHAR
STARTCHAR 2191
ENCODING 8593
SWIDTH 553 0
DWIDTH 10 0
BBX 9 13 0 0
BITMAP
0800
0800
0800
0800
0800
0800
0800
8880
C980
6B00
3E00
1C00
0800
ENDCHAR
STARTCHAR 2192
ENCODING 8594
SWIDTH 775 0
DWIDTH 14 0
BBX 14 9 0 0
BITMAP
00C0
0060
0030
0018
FFFC
0018
0030
0060
00C0
ENDCHAR
STARTCHAR 2193
ENCODING 8595
SWIDTH 553 0
DWIDTH 10 0
BBX 9 13 0 0
BITMAP
0800
1C00
3E00
6B00
C980
8880
0800
0800
0800
0800
0800
0800
0800
ENDCHAR
STARTCHAR 2202
ENCODING 8706
SWIDTH 498 0
DWIDTH 9 0
BBX 8 13 1 0
BITMAP
78
0C
06
02
03
03
3F
63
C3
C3
C6
E6
3C
ENDCHAR
STARTCHAR 2206
ENCODING 8710
SWIDTH 720 0
DWIDTH 13 0
BBX 12 13 0 0
BITMAP
0600
0700
0D00
0900
0980
1880
10C0
3040
2040
2060
6020
4030
FFF0
ENDCHAR
STARTCHAR 220F
ENCODING 8719
SWIDTH 775 0
DWIDTH 14 0
BBX 13 14 0 -2
BITMAP
FFF8
1060
1060
1060
1060
1060
1060
1060
1060
1060
1060
1060
1060
1060
ENDCHAR
STARTCHAR 2211
ENCODING 8721
SWIDTH 609 0
DWIDTH 11 0
BBX 10 14 0 -2
BITMAP
FFC0
6000
3000
1000
1800
0C00
0600
0400
0800
1800
3000
6000
7FC0
FFC0
ENDCHAR
STARTCHAR 2212
ENCODING 8722
SWIDTH 553 0
DWIDTH 10 0
BBX 9 1 1 4
BITMAP
FF80
ENDCHAR
STARTCHAR 221A
ENCODING 8730
SWIDTH 609 0
DWIDTH 11 0
BBX 10 18 1 -3
BITMAP
0040
0040
00C0
00C0
0080
0080
0180
0180
6100
E100
2300
3300
3200
1200
1E00
0E00
0C00
0400
ENDCHAR
STARTCHAR 221E
ENCODING 8734
SWIDTH 775 0
DWIDTH 14 0
BBX 12 6 1 2
BITMAP
70E0
CD30
8610
8610
C930
70E0
ENDCHAR
STARTCHAR 222B
ENCODING 8747
SWIDTH 387 0
DWIDTH 7 0
BBX 6 19 0 -3
BITMAP
0C
18
10
10
10
10
10
10
10
10
10
10
10
10
10
10
10
30
E0
ENDCHAR
STARTCHAR 2248
ENCODING 8776
SWIDTH 553 0
DWIDTH 10 0
BBX 7 5 1 2
BITMAP
20
FE
00
20
FE
ENDCHAR
STARTCHAR 2260
ENCODING 8800
SWIDTH 553 0
DWIDTH 10 0
BBX 8 8 1 0
BITMAP
02
06
FF
08
10
FF
60
40
ENDCHAR
STARTCHAR 2264
ENCODING 8804
SWIDTH 553 0
DWIDTH 10 0
BBX 8 10 1 0
BITMAP
01
07
3C
E0
C0
38
0E
03
00
FF
ENDCHAR
STARTCHAR 2265
ENCODING 8805
SWIDTH 553 0
DWIDTH 10 0
BBX 8 10 1 0
BITMAP
80
E0
1C
07
03
1E
70
C0
00
FF
ENDCHAR
STARTCHAR 25CA
ENCODING 9674
SWIDTH 553 0
DWIDTH 10 0
BBX 8 13 1 0
BITMAP
18
18
24
26
42
43
81
C3
42
66
24
3C
18
ENDCHAR
STARTCHAR FB01
ENCODING 64257
SWIDTH 553 0
DWIDTH 10 0
BBX 8 14 1 0
BITMAP
3B
63
60
60
FB
63
63
63
63
63
63
63
63
63
ENDCHAR
STARTCHAR FB02
ENCODING 64258
SWIDTH 609 0
DWIDTH 11 0
BBX 10 14 1 0
BITMAP
3B00
6300
6300
6300
FB00
6300
6300
6300
6300
6300
6300
6300
6300
61C0
ENDCHAR
ENDFONT
